<?xml version="1.0" encoding="utf-8"?>
<!-- Generator: Adobe Illustrator 18.0.0, SVG Export Plug-In . SVG Version: 6.00 Build 0)  -->
<!DOCTYPE svg PUBLIC "-//W3C//DTD SVG 1.1//EN" "http://www.w3.org/Graphics/SVG/1.1/DTD/svg11.dtd">
<svg version="1.1" id="Layer_1" xmlns="http://www.w3.org/2000/svg" xmlns:xlink="http://www.w3.org/1999/xlink" x="0px" y="0px"
	 viewBox="0 0 150 150" enable-background="new 0 0 150 150" xml:space="preserve">
<g>
	<path fill="#FFFFFF" d="M85.7,105.8V58.1c0-1.4-1.5-2.3-2.9-2.3H14.2c-1.4,0-2.6,0.9-2.6,2.3v47.7H85.7z M16.1,60.2h65.2v42H16.1
		V60.2z M97.3,106.6c0,0,0,0.4,0,0.9c0,1.8-1.8,3.6-3.6,3.6c-3.8,0-86.6,0-90.2,0c-1.8,0-3.6-1.8-3.6-3.6c0-0.5,0-0.9,0-0.9H97.3z
		 M86.6,101.3h16.1v4.5H86.6V101.3z M133.9,40.5V54h-4.5V41.5H26.8v13.4h-4.5V40.6c0-1.8,1.8-3.6,3.6-3.6h104.5
		C132.1,37,133.9,38.8,133.9,40.5z M147.5,75.4h-12c-1.3,0-2.5,1.1-2.5,2.4v30.9c0,1.3,1.1,2.4,2.5,2.4h12c1.3,0,2.5-1.1,2.5-2.4
		V77.8C150,76.5,148.9,75.4,147.5,75.4z M139.7,79h3.6c0.3,0,0.4,0.2,0.4,0.4s-0.2,0.4-0.4,0.4h-3.6c-0.3,0-0.4-0.2-0.4-0.4
		S139.5,79,139.7,79z M141.5,109.3c-0.7,0-1.3-0.6-1.3-1.3c0-0.7,0.6-1.3,1.3-1.3c0.7,0,1.3,0.6,1.3,1.3
		C142.9,108.7,142.2,109.3,141.5,109.3z M148.2,105.8h-13.4v-25h13.4V105.8z M137.5,54.9h-30.4c-1.8,0-3.6,1-3.6,3v47.9
		c0,1.8,1.8,3.6,3.6,3.6h25V104h-25.9V60.2h32.1v14.3h2.7V58.4C141.1,56.7,139.3,54.9,137.5,54.9z M121.9,104.9
		c0.7,0,1.3,0.6,1.3,1.3s-0.6,1.3-1.3,1.3s-1.3-0.6-1.3-1.3S121.2,104.9,121.9,104.9z"/>
</g>
</svg>
