<?xml version="1.0" encoding="utf-8"?>
<!-- Generator: Adobe Illustrator 21.1.0, SVG Export Plug-In . SVG Version: 6.00 Build 0)  -->
<svg version="1.1" id="Layer_1" xmlns="http://www.w3.org/2000/svg" xmlns:xlink="http://www.w3.org/1999/xlink" x="0px" y="0px"
	 viewBox="0 0 300 90" style="enable-background:new 0 0 300 90;" xml:space="preserve">
<style type="text/css">
	.st0{fill:#FFFFFF;}
</style>
<g>
	<g>
		<path class="st0" d="M24,50c-2.4,0-5.7,0-5.7,0c-0.6,0-1.2,0.4-1.3,1c0,0-3.1,20.3-3.3,21.6C13.6,73.4,14.3,74,15,74h7.9
			c1.1,0,2-0.8,2.2-1.8L27,60.3c0.2-1.1,1.1-1.8,2.2-1.8h1.4C39.2,58.4,45.9,55,48,45c0.9-4.3,0.6-9.5-3.2-12
			C43.6,39.8,40.5,50,24,50z"/>
	</g>
	<path class="st0" d="M18.3,48c3.1,0,5.1,0,5.1,0c2.7,0,5.1-0.4,7.3-1c5.4-1.6,9-5.1,10.9-10.7c2.3-7,1.3-11.2-1.3-14.1S33,18,27,18
		H10.7c-1.2,0-2.3,0.9-2.5,2.1L1,66c-0.1,0.9,0.6,2,1.5,2H12c0,0,2.6-16.3,2.7-16.8C14.9,49.6,15.9,48,18.3,48z"/>
</g>
<path class="st0" d="M112.1,30l-7.9,21.2l-0.8-4.3c-2.2-6.1-7.7-9.5-10.5-10.5L99.5,61h8.5l12.6-31H112.1z"/>
<polygon class="st0" points="119,61 124,30 132,30 127,61 "/>
<path class="st0" d="M156.1,30.7c-1.6-0.6-4.1-1.3-7.2-1.3c-7.9,0-13.5,4.2-13.6,10.3c-0.1,4.5,4,7,7,8.4c3.1,1.5,4.2,2.5,4.2,3.9
	c0,2.1-2.5,3-4.8,3c-3.2,0-4.9-0.5-7.6-1.6l-1-0.5l-1.1,7c1.9,0.9,5.3,1.6,8.9,1.7c8.4,0,13.9-4.2,14-10.6c0-3.5-2.1-6.2-6.7-8.4
	c-2.8-1.4-4.5-2.4-4.5-3.9c0-1.3,1.5-2.7,4.6-2.7c2.6,0,4.5,0.6,6,1.2l0.7,0.4L156.1,30.7L156.1,30.7z"/>
<path class="st0" d="M176.7,30h-6.2c-1.9,0-3.4,0.5-4.2,2.6l-12,28.4h8.4c0,0,1.4-3.8,1.7-4.6c0.9,0,9.1,0,10.3,0
	c0.2,1.1,1,4.6,1,4.6h7.4L176.7,30L176.7,30z M171,38.4l2.5,11.6c0,0-5.1,0-6.7,0C166.8,50,170.6,39.5,171,38.4z"/>
<path class="st0" d="M84.1,30L84,30.6c11.3,2.9,16.6,8.4,19.5,16.3l-2.8-14.3c-0.5-2-1.9-2.5-3.7-2.6C97,30,84.1,30,84.1,30z"/>
<polygon class="st0" points="184.4,59.3 185.8,59.3 185.8,59.5 185.3,59.5 185.3,61 185,61 185,59.5 184.4,59.5 "/>
<polygon class="st0" points="186,59.3 186.5,59.3 186.9,60.6 186.9,60.6 187.4,59.3 187.8,59.3 187.8,61 187.5,61 187.5,59.7 
	187.5,59.7 187,61 186.8,61 186.3,59.7 186.3,59.7 186.3,61 186,61 "/>
<g>
	<path class="st0" d="M262.2,23.2c0,0-8.3,6.1-8.2,17.4c0,6.8,2.8,12.6,8.3,17.4c5.5-4.9,8.2-10.7,8.2-17.4
		C270.4,29.3,262.2,23.2,262.2,23.2z"/>
	<path class="st0" d="M251.5,40.5c0-7.2,3-14,8.2-18.9c-3.7-2.4-7.9-3.7-12.4-3.7c-12.5,0-22.6,10.1-22.6,22.6s10.1,22.6,22.6,22.6
		c4.4,0,8.7-1.3,12.4-3.7C254.5,54.6,251.5,47.7,251.5,40.5z M277.1,63.1c12.5,0,22.6-10.1,22.6-22.6c0-12.5-10.1-22.6-22.6-22.6
		c-4.4,0-8.7,1.3-12.4,3.7c5.2,4.9,8.2,11.7,8.2,18.9c0,7.3-3,14.1-8.2,18.9C268.4,61.8,272.7,63.1,277.1,63.1z"/>
	<path class="st0" d="M237.4,76.9v-4c0-1.5-0.9-2.6-2.5-2.6c-0.8,0-1.7,0.3-2.3,1.1c-0.5-0.7-1.1-1.1-2.1-1.1
		c-0.7,0-1.3,0.2-1.9,0.9v-0.8h-1.4v6.4h1.4v-3.6c0-1.1,0.6-1.7,1.5-1.7c0.9,0,1.4,0.6,1.4,1.7v3.6h1.4v-3.6c0-1.1,0.7-1.7,1.5-1.7
		c0.9,0,1.4,0.6,1.4,1.7v3.6H237.4z M258.2,70.5H256v-1.9h-1.4v1.9h-1.3v1.3h1.3v3c0,1.5,0.6,2.4,2.2,2.4c0.6,0,1.3-0.2,1.7-0.5
		l-0.4-1.2c-0.4,0.3-0.9,0.3-1.2,0.3c-0.7,0-0.9-0.4-0.9-1.1v-2.9h2.3V70.5z M270.2,70.3c-0.8,0-1.3,0.4-1.7,0.9v-0.8h-1.4v6.4h1.4
		v-3.6c0-1.1,0.5-1.7,1.3-1.7c0.3,0,0.6,0.1,0.9,0.1l0.4-1.3C270.8,70.3,270.4,70.3,270.2,70.3L270.2,70.3z M252.1,71
		c-0.7-0.5-1.6-0.7-2.6-0.7c-1.6,0-2.7,0.8-2.7,2.1c0,1.1,0.8,1.7,2.2,1.9l0.7,0.1c0.7,0.1,1.1,0.3,1.1,0.7c0,0.5-0.5,0.8-1.5,0.8
		c-0.9,0-1.7-0.3-2.1-0.7l-0.7,1.1c0.7,0.5,1.7,0.8,2.7,0.8c1.9,0,2.9-0.9,2.9-2.1c0-1.1-0.9-1.7-2.2-1.9l-0.7-0.1
		c-0.6-0.1-1.1-0.2-1.1-0.6c0-0.5,0.5-0.7,1.2-0.7c0.8,0,1.6,0.3,2,0.5L252.1,71z M289.5,70.3c-0.8,0-1.3,0.4-1.7,0.9v-0.8h-1.4v6.4
		h1.4v-3.6c0-1.1,0.5-1.7,1.3-1.7c0.3,0,0.6,0.1,0.9,0.1l0.4-1.3C290.2,70.3,289.8,70.3,289.5,70.3L289.5,70.3z M271.6,73.7
		c0,1.9,1.3,3.4,3.4,3.4c0.9,0,1.6-0.2,2.3-0.7l-0.7-1.1c-0.5,0.4-1.1,0.6-1.7,0.6c-1.1,0-1.9-0.8-1.9-2.1c0-1.2,0.8-2,1.9-2.1
		c0.6,0,1.1,0.2,1.7,0.6l0.7-1.1c-0.7-0.5-1.3-0.7-2.3-0.7C272.9,70.3,271.6,71.7,271.6,73.7L271.6,73.7z M284.6,73.7v-3.2h-1.4v0.8
		c-0.5-0.6-1.1-0.9-2-0.9c-1.8,0-3.2,1.4-3.2,3.4c0,1.9,1.4,3.4,3.2,3.4c0.9,0,1.6-0.3,2-0.9v0.8h1.4V73.7z M279.4,73.7
		c0-1.1,0.7-2.1,1.9-2.1c1.1,0,1.9,0.9,1.9,2.1c0,1.1-0.8,2.1-1.9,2.1C280.2,75.7,279.4,74.8,279.4,73.7L279.4,73.7z M262.6,70.3
		c-1.9,0-3.2,1.3-3.2,3.4c0,2,1.3,3.4,3.3,3.4c0.9,0,1.9-0.3,2.6-0.9l-0.7-1c-0.5,0.4-1.2,0.7-1.9,0.7c-0.9,0-1.7-0.4-1.9-1.5h4.8
		c0-0.2,0-0.3,0-0.5C265.6,71.7,264.4,70.3,262.6,70.3L262.6,70.3z M262.6,71.5c0.9,0,1.5,0.5,1.6,1.5h-3.4
		C261,72.2,261.6,71.5,262.6,71.5L262.6,71.5z M297.5,73.7v-5.8h-1.4v3.4c-0.5-0.6-1.1-0.9-2-0.9c-1.8,0-3.2,1.4-3.2,3.4
		c0,1.9,1.4,3.4,3.2,3.4c0.9,0,1.6-0.3,2-0.9v0.8h1.4V73.7z M292.4,73.7c0-1.1,0.7-2.1,1.9-2.1c1.1,0,1.9,0.9,1.9,2.1
		c0,1.1-0.8,2.1-1.9,2.1C293.1,75.7,292.4,74.8,292.4,73.7L292.4,73.7z M245.3,73.7v-3.2h-1.4v0.8c-0.5-0.6-1.1-0.9-2-0.9
		c-1.8,0-3.2,1.4-3.2,3.4c0,1.9,1.4,3.4,3.2,3.4c0.9,0,1.6-0.3,2-0.9v0.8h1.4V73.7z M240.1,73.7c0-1.1,0.7-2.1,1.9-2.1
		c1.1,0,1.9,0.9,1.9,2.1c0,1.1-0.8,2.1-1.9,2.1C240.8,75.7,240.1,74.8,240.1,73.7z"/>
</g>
</svg>
