<?xml version="1.0" encoding="utf-8"?>
<!-- Generator: Adobe Illustrator 18.0.0, SVG Export Plug-In . SVG Version: 6.00 Build 0)  -->
<!DOCTYPE svg PUBLIC "-//W3C//DTD SVG 1.1//EN" "http://www.w3.org/Graphics/SVG/1.1/DTD/svg11.dtd">
<svg version="1.1" id="Layer_1" xmlns="http://www.w3.org/2000/svg" xmlns:xlink="http://www.w3.org/1999/xlink" x="0px" y="0px"
	 viewBox="0 0 150 150" enable-background="new 0 0 150 150" xml:space="preserve">
<path fill="#FFFFFF" d="M66.9,50.3c0-4.1,3.3-7.5,7.5-7.5s7.5,3.3,7.5,7.5s-3.3,7.5-7.5,7.5S66.9,54.4,66.9,50.3z M84.2,90h-2.3
	V64.4c0-2.1-1.8-3.2-3.5-3.2H65.8c-2.2,0-3.5,1.3-3.5,3.5v2.3c0,2.4,1.8,3.5,3.5,3.5h2.3V90h-2.4c-2.2,0-3.3,1.7-3.3,3.3v2.4
	c0,2.3,1.7,3.5,3.3,3.5h18.5c2.3,0,3.5-1.8,3.5-3.5v-2.3C87.7,91.8,86.5,90,84.2,90z M75,29c-25.4,0-46,20.6-46,46s20.6,46,46,46
	s46-20.6,46-46S100.4,29,75,29z M75,114.1c-21.6,0-39.1-17.5-39.1-39.1S53.4,35.9,75,35.9s39.1,17.5,39.1,39.1S96.6,114.1,75,114.1z
	"/>
</svg>
